<svg width="1600" height="1200" viewBox="0 0 1600 1200" fill="none" xmlns="http://www.w3.org/2000/svg">
  <!-- White background -->
  <rect width="1600" height="1200" fill="white"/>

  <!-- Card with rounded corners -->
  <rect x="200" y="100" width="1200" height="1000" rx="48" fill="white" stroke="#e5e7eb" stroke-width="2"/>

  <!-- Background circle -->
  <circle cx="800" cy="420" r="160" fill="#7f54b3" opacity="0.08"/>

  <!-- Shopping bag icon with Google stripes - scaled and centered -->
  <g transform="translate(650, 270) scale(0.49)">
    <!-- Shopping bag in purple -->
    <g transform="translate(-150, 750) scale(0.15, -0.15)" fill="#7f54b3" stroke="none">
      <path d="M2707 4519 c-171 -26 -340 -212 -397 -435 -15 -59 -20 -111 -20 -221 0 -124 -3 -148 -20 -180 -24 -45 -24 -55 -5 -92 31 -61 121 -65 156 -8 25 43 24 70 -6 105 -24 28 -25 36 -25 153 0 154 18 241 70 345 103 204 272 289 418 210 77 -43 147 -122 192 -219 50 -108 60 -161 60 -323 0 -121 -2 -139 -20 -161 -22 -29 -26 -89 -7 -114 36 -47 97 -51 138 -10 33 33 37 70 14 115 -11 21 -15 62 -15 155 0 84 -7 156 -19 217 -61 296 -285 498 -514 463z"/>
      <path d="M3279 4520 c-26 -5 -67 -17 -93 -28 -47 -21 -116 -69 -116 -81 0 -3 14 -21 30 -39 l30 -33 46 32 c48 33 119 59 160 59 56 0 139 -43 200 -104 91 -91 163 -258 164 -378 l0 -28 -221 0 -220 0 3 -52 3 -53 101 -3 101 -3 12 -307 c7 -169 18 -458 26 -642 41 -978 47 -1142 41 -1147 -3 -3 -354 22 -778 56 -577 46 -777 65 -787 76 -12 11 -8 89 23 517 20 277 41 571 47 653 35 506 57 774 63 784 4 6 35 11 77 11 l69 0 0 55 0 55 -79 0 c-64 0 -84 -4 -112 -23 -66 -44 -61 -5 -138 -1071 l-71 -980 21 -43 c13 -26 34 -50 52 -60 24 -12 134 -24 442 -49 225 -18 583 -47 795 -65 212 -17 414 -31 450 -31 54 0 106 13 315 82 154 50 259 90 274 103 56 52 56 36 -4 644 -31 307 -73 740 -95 963 -22 223 -45 420 -51 438 -6 18 -27 45 -47 60 -31 23 -46 27 -118 30 -90 4 -94 7 -94 77 0 51 -39 176 -78 250 -47 90 -145 193 -219 233 -51 27 -75 34 -158 46 -11 2 -41 0 -66 -4z m570 -1430 c28 -245 64 -593 82 -773 l33 -329 71 -40 c118 -68 136 -80 131 -85 -2 -3 -56 12 -119 33 l-114 37 -59 -45 c-75 -57 -181 -128 -190 -128 -5 0 43 52 105 114 111 113 113 115 107 153 -18 113 -116 1426 -115 1528 1 69 1 69 10 25 5 -25 31 -245 58 -490z"/>
      <path d="M2926 4218 c-35 -75 -60 -163 -71 -250 l-6 -48 -215 0 -214 0 0 -55 0 -55 343 2 342 3 0 50 0 50 -74 3 -73 3 6 57 c7 65 26 130 51 184 17 35 17 37 -4 71 -42 68 -47 67 -85 -15z"/>
    </g>
    <!-- Google-colored data lines on bag front -->
    <g transform="translate(195, 280) skewY(3)">
      <rect x="0" y="0" width="80" height="24" rx="12" fill="#4285F4"/>
      <rect x="0" y="40" width="130" height="24" rx="12" fill="#EA4335"/>
      <rect x="0" y="80" width="60" height="24" rx="12" fill="#FBBC04"/>
      <rect x="0" y="120" width="105" height="24" rx="12" fill="#34A853"/>
    </g>
  </g>

  <!-- PRO badge -->
  <rect x="600" y="680" width="400" height="80" rx="40" fill="#7f54b3"/>
  <text x="800" y="733" font-family="system-ui, -apple-system, BlinkMacSystemFont, sans-serif" font-size="40" font-weight="700" fill="white" text-anchor="middle">PRO</text>

  <!-- Single site -->
  <text x="800" y="820" font-family="system-ui, -apple-system, BlinkMacSystemFont, sans-serif" font-size="28" fill="#666" text-anchor="middle">Single Site License</text>

  <!-- Product name -->
  <text x="800" y="940" font-family="system-ui, -apple-system, BlinkMacSystemFont, sans-serif" font-size="36" font-weight="600" fill="#333" text-anchor="middle">Product Feed</text>
  <text x="800" y="990" font-family="system-ui, -apple-system, BlinkMacSystemFont, sans-serif" font-size="28" fill="#666" text-anchor="middle">for WooCommerce</text>
</svg>
