<svg width="1600" height="1200" viewBox="0 0 1600 1200" fill="none" xmlns="http://www.w3.org/2000/svg">
  <!-- White background -->
  <rect width="1600" height="1200" fill="white"/>

  <!-- Card with rounded corners -->
  <rect x="200" y="100" width="1200" height="1000" rx="48" fill="white" stroke="#e5e7eb" stroke-width="2"/>

  <!-- Background circle -->
  <circle cx="800" cy="420" r="160" fill="#7f54b3" opacity="0.08"/>

  <!-- Zap icon (Lucide) - scaled and centered -->
  <g transform="translate(720, 340) scale(6.5)" stroke="#7f54b3" stroke-width="2.5" stroke-linecap="round" stroke-linejoin="round" fill="none">
    <path d="M4 14a1 1 0 0 1-.78-1.63l9.9-10.2a.5.5 0 0 1 .86.46l-1.92 6.02A1 1 0 0 0 13 10h7a1 1 0 0 1 .78 1.63l-9.9 10.2a.5.5 0 0 1-.86-.46l1.92-6.02A1 1 0 0 0 11 14z"/>
  </g>

  <!-- PRO badge -->
  <rect x="600" y="680" width="400" height="80" rx="40" fill="#7f54b3"/>
  <text x="800" y="733" font-family="system-ui, -apple-system, BlinkMacSystemFont, sans-serif" font-size="40" font-weight="700" fill="white" text-anchor="middle">PRO</text>

  <!-- Single site -->
  <text x="800" y="820" font-family="system-ui, -apple-system, BlinkMacSystemFont, sans-serif" font-size="28" fill="#666" text-anchor="middle">Single Site License</text>

  <!-- Product name -->
  <text x="800" y="940" font-family="system-ui, -apple-system, BlinkMacSystemFont, sans-serif" font-size="36" font-weight="600" fill="#333" text-anchor="middle">Product Feed</text>
  <text x="800" y="990" font-family="system-ui, -apple-system, BlinkMacSystemFont, sans-serif" font-size="28" fill="#666" text-anchor="middle">for WooCommerce</text>
</svg>
