<svg width="1600" height="1200" viewBox="0 0 1600 1200" fill="none" xmlns="http://www.w3.org/2000/svg">
  <!-- White background -->
  <rect width="1600" height="1200" fill="white"/>

  <!-- Card with rounded corners -->
  <rect x="200" y="100" width="1200" height="1000" rx="48" fill="white" stroke="#e5e7eb" stroke-width="2"/>

  <!-- Background circle -->
  <circle cx="800" cy="420" r="180" fill="#7f54b3" opacity="0.08"/>

  <!-- Circle-dot-dashed icon (Lucide) - scaled and centered -->
  <g transform="translate(720, 340) scale(6.5)" stroke="#7f54b3" stroke-width="2.5" stroke-linecap="round" stroke-linejoin="round" fill="none">
    <path d="M10.1 2.18a9.93 9.93 0 0 1 3.8 0"/>
    <path d="M17.6 3.71a9.95 9.95 0 0 1 2.69 2.7"/>
    <path d="M21.82 10.1a9.93 9.93 0 0 1 0 3.8"/>
    <path d="M20.29 17.6a9.95 9.95 0 0 1-2.7 2.69"/>
    <path d="M13.9 21.82a9.94 9.94 0 0 1-3.8 0"/>
    <path d="M6.4 20.29a9.95 9.95 0 0 1-2.69-2.7"/>
    <path d="M2.18 13.9a9.93 9.93 0 0 1 0-3.8"/>
    <path d="M3.71 6.4a9.95 9.95 0 0 1 2.7-2.69"/>
    <circle cx="12" cy="12" r="1" fill="#7f54b3"/>
  </g>

  <!-- AGENCY badge - single color -->
  <rect x="550" y="680" width="500" height="80" rx="40" fill="#7f54b3"/>
  <text x="800" y="733" font-family="system-ui, -apple-system, BlinkMacSystemFont, sans-serif" font-size="40" font-weight="700" fill="white" text-anchor="middle">AGENCY</text>

  <!-- Unlimited sites -->
  <text x="800" y="820" font-family="system-ui, -apple-system, BlinkMacSystemFont, sans-serif" font-size="28" fill="#666" text-anchor="middle">Unlimited Sites License</text>

  <!-- Product name -->
  <text x="800" y="940" font-family="system-ui, -apple-system, BlinkMacSystemFont, sans-serif" font-size="36" font-weight="600" fill="#333" text-anchor="middle">Product Feed</text>
  <text x="800" y="990" font-family="system-ui, -apple-system, BlinkMacSystemFont, sans-serif" font-size="28" fill="#666" text-anchor="middle">for WooCommerce</text>
</svg>
